<svg xmlns="http://www.w3.org/2000/svg" viewBox="0 0 512 512"><path d="M341.333 145.067V25.6c0-14.507-11.093-25.6-25.6-25.6H196.267c-14.507 0-25.6 11.093-25.6 25.6v119.467c-5.12 0-8.533 3.413-8.533 8.533v76.8c0 5.12 3.413 8.533 8.533 8.533v34.133c0 15.36 10.24 28.16 23.893 33.28-5.12 37.547-6.827 100.693-6.827 136.533 0 37.547 29.867 68.267 66.56 69.12H256c.854 0 1.707 0 .853-.853 36.693 0 66.56-31.573 66.56-69.12 0-35.84-.853-98.987-6.827-136.533 14.507-4.267 24.747-17.067 24.747-32.427v-34.133c5.12 0 8.533-3.413 8.533-8.533v-76.8c.001-5.12-3.413-8.533-8.533-8.533zM179.2 162.133h153.6v59.733H179.2v-59.733zM187.733 25.6c0-4.267 4.267-8.533 8.533-8.533h17.067v76.8c0 5.12 3.413 8.533 8.533 8.533 5.12 0 8.533-3.413 8.533-8.533v-76.8h17.067v102.4c0 5.12 3.413 8.533 8.533 8.533 5.12 0 8.533-3.413 8.533-8.533v-102.4H281.6v76.8c0 5.12 3.413 8.533 8.533 8.533 5.12 0 8.533-3.413 8.533-8.533v-76.8h17.067c5.12 0 8.533 3.413 8.533 8.533v119.467H187.733V25.6zm135.68 247.467c0 9.387-7.68 17.067-17.067 17.067-2.56 0-5.12 1.707-6.827 3.413s-2.56 4.267-1.707 6.827c6.827 34.987 8.533 104.107 8.533 142.507.853 28.16-22.187 51.2-49.493 52.053h-2.56c-27.307 0-49.493-23.893-49.493-52.053 0-38.4 1.707-106.667 8.533-141.653v-2.56c0-5.12-3.413-8.533-8.533-8.533-9.387 0-17.067-7.68-17.067-17.067H230.4c5.12 0 8.533-3.413 8.533-8.533S235.52 256 230.4 256h-42.667v-17.067h135.68v34.134z"/><path d="M221.867 426.667c0 18.773 15.36 34.133 34.133 34.133s34.133-15.36 34.133-34.133-15.36-34.133-34.133-34.133-34.133 15.359-34.133 34.133zM256 409.6c9.387 0 17.067 7.68 17.067 17.067s-7.68 17.067-17.067 17.067-17.067-7.68-17.067-17.067S246.613 409.6 256 409.6z"/></svg>