<svg xmlns="http://www.w3.org/2000/svg" width="381.085" height="381.085" viewBox="0 0 381.085 381.085"><path d="M117.017 228.17l62.572-25.619c-.228-9.552-.538-17.883-.8-23.681-7.281 6.137-13.119 10.825-16.272 12.938-11.782 7.87-42.137 18.929-57.445 24.265-18.141-11.724-44.589-7.392-62.163 11.304-19.221 20.435-20.879 49.908-3.795 67.084.303.316.625.607.934.923 17.878 16.792 48.25 13.628 67.692-7.076 16.821-17.913 20.195-42.715 9.277-60.138zm-68.183 57.85l-.63-.619c-11.981-12.039-10.165-34.133 4.041-49.254 14.613-15.543 36.853-18.462 49.563-6.504l.636.606c11.992 12.027 10.159 34.12-4.046 49.254-14.608 15.542-36.841 18.474-49.564 6.517z"/><path d="M204.321 356.28c13.884-20.867 12.845-47.188-2.476-62.577-.21-.211-.443-.387-.653-.584-.596-14.434-.129-45.729 11.28-81.343C214.211 197.226 316.41 2.557 316.41 2.557L309.333 0 187.64 172.044s4.771 79.504-2.814 111.733c-18.963-5.36-41.5 3.549-54.584 23.214-13.884 20.866-12.839 47.175 2.476 62.565a37.97 37.97 0 0 0 6.037 4.951c20.411 13.604 49.826 5.419 65.566-18.227zm-3.55-174.818c-3.036-3.047-3.013-7.987.023-11.023 3.06-3.036 7.987-3.036 11.035.023 3.036 3.048 3.024 7.987-.023 11.023a7.78 7.78 0 0 1-11.035-.023zm-54.923 182.373a24.56 24.56 0 0 1-4.04-3.315c-11.041-11.094-11.409-30.606-.888-46.429 11.812-17.749 33.256-24.335 47.794-14.655 1.46.97 2.82 2.09 4.052 3.305 11.029 11.094 11.415 30.617.887 46.429-11.828 17.771-33.267 24.334-47.805 14.665z"/><path d="M353.765 29.87l-5.372-5.395-69.163 64.668c-12.611 24.621-25.701 50.48-36.27 72.019L353.765 29.87z"/></svg>