<svg xmlns="http://www.w3.org/2000/svg" viewBox="0 0 396.288 396.288"><path d="M178.721 242.688h-7.168V87.04c0-3.072-2.048-5.12-5.12-5.12h-5.12v-51.2c0-6.144-3.072-11.776-8.192-15.36-5.12-3.584-11.776-4.096-17.408-2.048l-17.92 7.168c-10.752 4.096-17.408 14.336-17.408 26.112V81.92h-5.12c-3.072 0-5.12 2.048-5.12 5.12v155.648h-7.168c-3.072 0-5.12 2.048-5.12 5.12v143.36c-.512 3.072 2.048 5.12 4.608 5.12h96.256c3.072 0 5.12-2.048 5.12-5.12v-143.36c0-3.072-2.048-5.12-5.12-5.12zM110.625 46.592c0-7.168 4.608-13.824 11.264-16.384l17.408-7.168c2.56-1.024 5.632-1.024 7.68 1.024 2.56 1.536 3.584 4.096 3.584 7.168v51.2h-39.936v-35.84zm-10.24 45.568h60.928v150.528h-60.928V92.16zm73.216 293.888H87.585v-133.12h86.016v133.12zM313.377 0h-96.256c-3.072 0-5.12 2.048-5.12 5.12v386.048c0 3.072 2.56 5.12 5.12 5.12h96.256c3.072 0 5.12-2.048 5.12-5.12V5.12c0-3.072-2.048-5.12-5.12-5.12zm-5.12 386.048h-86.016v-133.12h86.016v133.12zm0-143.36h-86.016V10.24h86.016v232.448z"/></svg>