<svg xmlns="http://www.w3.org/2000/svg" viewBox="0 0 436.879 436.879"><path d="M411.424 223.786c-6.175-5.519-15.659-4.988-21.18 1.189l-36.775 41.149c-.69-.454-1.397-.91-2.124-1.37-3.797-2.407-8.086-4.86-12.698-7.28l32.224-35.108c5.602-6.103 5.195-15.592-.908-21.194-6.102-5.603-15.592-5.195-21.193.908l-38.979 42.468a298.66 298.66 0 0 0-17.5-6.053l22.494-30.036c4.967-6.631 3.616-16.032-3.015-20.998-6.629-4.965-16.033-3.616-20.997 3.015l-30.004 40.063a279.72 279.72 0 0 0-18.385-2.934l16.492-23.454c4.765-6.776 3.134-16.133-3.643-20.898-6.775-4.766-16.134-3.135-20.898 3.642l-27.184 38.66c-5.478.074-10.868.401-16.155.947l10.33-18.877c3.977-7.267 1.309-16.382-5.959-20.359-7.267-3.978-16.382-1.309-20.359 5.958l-21.943 40.102c-.192.352-.356.711-.517 1.07-21.171 6.47-39.416 15.496-53.297 23.664-15.222 8.957-26.419 17.526-33.132 23.139-14.365 12.01-16.789 16.805-16.789 23.011 0 6.051 2.668 11.581 16.74 23.448 6.63 5.59 17.776 14.146 33.232 23.157 25.101 14.634 64.6 32.079 110.227 32.079 46.41 0 86.287-22.195 111.567-40.814 15.504-11.419 26.604-22.216 33.185-29.263 7.805-8.358 11.663-13.88 13.574-17.766l44.76-50.084c5.519-6.178 4.987-15.66-1.191-21.181zM85.097 304.44c11.232-9.36 32.786-24.639 60.129-35.633a72.957 72.957 0 0 0-9.124 35.403 72.948 72.948 0 0 0 9.329 35.759 224.257 224.257 0 0 1-25.729-12.077c-15.555-8.536-27.388-17.342-34.605-23.452zm190.98 30.745a72.974 72.974 0 0 0 6.876-30.975c0-15.075-4.572-29.1-12.395-40.772 29.612 7.593 52.566 18.947 64.178 26.209-9.917 11.075-30.939 31.003-58.659 45.538z"/><path d="M435.631 186.185a234.173 234.173 0 0 0-19.513-33.441c-17.095-24.417-35.767-44.848-55.496-60.724-31.364-25.239-64.294-38.036-97.873-38.036-28.551 0-90.303 21.277-124.571 33.96-48.051 17.783-98.167 39.466-119.166 51.557C6.93 146.457 0 157.32 0 169.305c0 18.316 15.252 33.218 34 33.218 3.422 0 7.179-.236 11.455-1.947.434-.173.956-.434 5.589-2.787 108.633-55.167 184.586-85.55 213.868-85.55 55.424 0 88.416 22.148 126.674 60.405a208.473 208.473 0 0 1 22.303 26.341 12.693 12.693 0 0 0 10.314 5.31c2.26 0 4.48-.606 6.412-1.748 5.701-3.347 7.859-10.379 5.016-16.362z"/></svg>