<svg xmlns="http://www.w3.org/2000/svg" width="376.155" height="376.154" viewBox="0 0 376.155 376.154"><path d="M194.524 150.313c-23.237-34.839-9.295-134.76-30.203-140.785-18.584-5.581-76.216 32.527-104.557 83.177-28.351 50.655-63.196 126.381 7.439 174.257 38.558 29.729-11.146 43.673-19.985 19.979-.823 48.191 46.516 49.43 53.44 15.332 4.816-23.74-24.037-73.543-32.988-97.585-21.848-58.543 42.744-137.083 42.744-137.083s-57.62 94.801-34.389 140.809c79.469 117.098 26.571 114.308 6.037 128.261 77.606 3.714 104.282-64.726 108.743-73.893 10.211-27.418 3.94-76.21-21.381-99.43-6.037-5.348-11.613 1.156-32.644 0-21.03-1.174-9.64-20.914-9.64-20.914s-7.257-6.16-7.438-8.828c-.175-2.663 6.493-4.647 6.493-4.647s-6.504-3.492-6.966-6.504c-.455-3.042 6.983-10.241 6.983-10.241s-9.82-4.531-10.001-9.062c-.175-4.53 10.714-12.004 21.142-33.683 7.894-16.383 7.438-43.678 19.979-49.96 7.438 12.787-23.22 110.366 26.957 141.503 9.289 5.108 68.772 51.578 19.974 111.516 53.913-37.636 4.869-100.762-9.739-122.219z"/><path d="M234.016 3.013c23.237 27.43-.468 131.052 54.368 165.43 74.337 52.979 21.941 124.396 11.152 143.593 18.59-53.901 17.2-81.786 8.36-103.622-8.839-21.831-64.586-79.918-73.414-109.205-8.827-29.28-11.618-110.115-54.392-95.396 39.527 49.867 15.589 95.589 69.49 164.163 53.901 68.568 42.972 164.962-2.078 187.253 70.389-93.159 8.36-165.884-9.763-194.704-9.587-15.244-29.729-27.873-31.598-63.179-1.857-35.323-26.402-96.436-36.24-92.932 25.556 50.649-.934 121.745 56.22 190.056 39.024 42.75 56.236 135.688-9.739 181.684 69.233-2.791 109.192-76.66 125.915-124.536 22.303-66.449-41.361-123.59-53.436-146.833-12.083-23.25-18.6-101.294-54.845-101.772z"/><path d="M323.229 78.056c-22.304-35.545-53.235-56.389-64.796-65.164 31.691 54.713 29.59 79.106 41.092 95.846 11.502 16.722 31.715 20.569 50.889 80.368.688-8.502-4.881-75.488-27.185-111.05zM228.96 42.522c1.564 8.694 9.225 53.662 15.156 62.035-3.818-55.063 1.413-51.934-3.129-72.497C236.445 11.49 228.434.344 201.951 0c26.483 22.303 25.444 33.829 27.009 42.522z"/></svg>